<svg xmlns="http://www.w3.org/2000/svg" viewBox="0 0 72.7 58.6"><path d="M14.8 16.8l-10.6 19h21.2l-10.6-19m0-4.1l14 25.1H.8l14-25.1z"/><path d="M2.5 39.7c.3.4.7.9 1.3 1.5 2.9 2.6 7.6 3.1 11 3.1 4.8 0 8.5-1 10.8-2.9.7-.6 1.2-1.2 1.5-1.7H2.5m-1.8-2h28l.7 1.3s-1.5 7.2-14.8 7.2C1.5 46.3 0 39.1 0 39.1l.7-1.4zm57.2-20.9l-10.6 19h21.2l-10.6-19m0-4.1l14 25.1h-28l14-25.1z"/><path d="M45.6 39.7c.3.4.7.9 1.3 1.5 2.9 2.6 7.6 3.1 11 3.1 4.8 0 8.5-1 10.8-2.9.7-.6 1.2-1.2 1.5-1.7H45.6m-1.7-2h28l.7 1.3s-1.5 7.2-14.8 7.2C44.6 46.2 43 39 43 39l.9-1.3zm-8.6-27.2h2v47.1h-2z"/><path d="M14.8 56.6H58v2H14.8zm0-51.8H58v2H14.8z"/><circle fill="#FFF" cx="36.3" cy="5.9" r="4.9"/><path d="M36.3 11.9c-3.3 0-5.9-2.7-5.9-5.9s2.6-6 5.9-6c3.3 0 5.9 2.7 5.9 5.9s-2.7 6-5.9 6zm0-9.9c-2.2 0-3.9 1.8-3.9 3.9s1.8 3.9 3.9 3.9 3.9-1.8 3.9-3.9S38.4 2 36.3 2z"/></svg>