<svg xmlns="http://www.w3.org/2000/svg" viewBox="0 0 55.7 56.3"><path d="M26.7 46.6h.2c-.1-.5-.5-1.8-1.9-3.8-1.4-2.1-3.5-4.5-5.8-6.7-4.8-4.6-8.2-6.5-9.5-6.7v.2c0 4.5 1.8 8.8 5 12 3.2 3.2 7.5 5 12 5m0 2c-10.5 0-19-8.5-19-19 0-1.6.7-2.2 1.8-2.2 2.4 0 6.9 3.2 11.1 7.3 6.2 5.9 11.6 13.9 6.1 13.9z"/><path d="M27.9 2c-3.5 0-6.8.7-10 2.1-3.2 1.4-5.9 3.3-8.3 5.8-2.4 2.4-4.2 5.3-5.6 8.4-1.3 3.2-2 6.7-2 10.2 0 3.5.7 6.9 2 10.1 1.3 3.1 3.2 5.8 5.5 8.2s5.1 4.2 8.2 5.5c3.2 1.3 6.6 2 10.1 2s6.9-.7 10.1-2c3.1-1.3 5.8-3.2 8.2-5.5 2.4-2.4 4.2-5.1 5.5-8.2 1.3-3.2 2-6.6 2-10.1s-.7-6.9-2-10.2c-1.3-3.1-3.2-6-5.6-8.4-2.4-2.5-5.2-4.4-8.2-5.7C34.7 2.7 31.3 2 27.9 2m0-2c15.4 0 27.9 13.1 27.9 28.5S43.2 56.3 27.9 56.3 0 43.8 0 28.5 12.5 0 27.9 0z"/></svg>