<svg xmlns="http://www.w3.org/2000/svg" viewBox="0 0 59.4 68.4"><path d="M29.7 59.4C13.3 59.4 0 46 0 29.7S13.3 0 29.7 0s29.7 13.3 29.7 29.7S46 59.4 29.7 59.4zm0-57.4C14.4 2 2 14.4 2 29.7 2 45 14.4 57.4 29.7 57.4S57.4 45 57.4 29.7C57.4 14.4 44.9 2 29.7 2z"/><path d="M51.9 40.1c-19.8 0-36.4-15.5-37.7-35.3l2-.1c1.3 18.7 17 33.4 35.7 33.4 1.7 0 3.3-.1 4.9-.3l.3 2c-1.7.2-3.4.3-5.2.3z"/><path d="M2.1 33.2l-1.8-.9c4.5-9 12.3-15.8 21.9-19 9.6-3.2 19.8-2.5 28.9 2.1 2.3 1.1 4.4 2.5 6.4 4L56.2 21c-1.9-1.5-3.9-2.8-6-3.8-17.7-8.8-39.3-1.7-48.1 16z"/><path d="M12.3 48.8c-1.8 0-3.6-.1-5.3-.4l.3-2c1.6.2 3.3.4 5 .4 9.6 0 18.6-3.7 25.3-10.5 6.8-6.8 10.5-15.8 10.5-25.3 0-.8 0-1.6-.1-2.3l2-.1c.1.8.1 1.7.1 2.5 0 10.1-4 19.6-11.1 26.8-7.1 7-16.6 10.9-26.7 10.9z"/><circle fill="#FFF" cx="38.9" cy="36.6" r="4.9"/><path d="M38.9 42.5c-3.2 0-5.9-2.6-5.9-5.9s2.6-5.9 5.9-5.9 5.9 2.6 5.9 5.9-2.7 5.9-5.9 5.9zm0-9.7c-2.1 0-3.9 1.7-3.9 3.9s1.7 3.9 3.9 3.9c2.1 0 3.9-1.7 3.9-3.9s-1.8-3.9-3.9-3.9z"/><circle fill="#FFF" cx="17.8" cy="16.9" r="4.9"/><path d="M17.8 22.7c-3.2 0-5.9-2.6-5.9-5.9 0-3.2 2.6-5.9 5.9-5.9s5.9 2.6 5.9 5.9c0 3.3-2.7 5.9-5.9 5.9zm0-9.7c-2.1 0-3.9 1.7-3.9 3.9 0 2.1 1.7 3.9 3.9 3.9 2.1 0 3.9-1.7 3.9-3.9S19.9 13 17.8 13z"/><circle fill="#FFF" cx="15.7" cy="47.5" r="4.9"/><path d="M15.7 53.4c-3.2 0-5.9-2.6-5.9-5.9s2.6-5.9 5.9-5.9 5.9 2.6 5.9 5.9-2.6 5.9-5.9 5.9zm0-9.7c-2.1 0-3.9 1.7-3.9 3.9 0 2.1 1.7 3.9 3.9 3.9 2.1 0 3.9-1.7 3.9-3.9s-1.7-3.9-3.9-3.9zM9.9 66.4h39.5v2H9.9z"/></svg>