<svg xmlns="http://www.w3.org/2000/svg" width="196.098" height="24.829"><defs><clipPath id="a"><path d="M373.749 289.772a3.587 3.587 0 00-3.16-1.845h-17.128a3.628 3.628 0 00-3.1 5.505l11.669 19.323 11.669-19.323a3.591 3.591 0 00.05-3.66zm-22.216.695a2.188 2.188 0 011.929-1.126h7.857v19.512l-9.755-16.153a2.193 2.193 0 01-.031-2.233zm20.953 2.235l-9.754 16.151V289.34h7.857a2.217 2.217 0 011.9 3.361z" transform="translate(-349.827 -287.927)" fill="#fff"/></clipPath></defs><g fill="#fff" clip-path="url(#a)"><path d="M26.368-11.979a2.491 2.491 0 00-.427-.269 3.271 3.271 0 01.427.269"/><path d="M23.825-13.526A25.543 25.543 0 00-10.416-2.071a12.761 12.761 0 1022.835 11.4 12.761 12.761 0 1122.835 11.4A25.536 25.536 0 0023.825-13.52"/><path d="M-10.608-2.221a12.761 12.761 0 1022.835 11.4 12.761 12.761 0 1122.835 11.4 25.521 25.521 0 11-45.67-22.794"/></g><path d="M50.318 2.662a.481.481 0 01.524.472v.54a.53.53 0 01-.128.365.508.508 0 01-.4.145h-6.083v17.482a.429.429 0 01-.485.484h-.54a.428.428 0 01-.484-.484V4.184h-6.139c-.314 0-.472-.171-.472-.51v-.54a.428.428 0 01.472-.472zm2.44 9.77a9.953 9.953 0 011.357-5.042 10.012 10.012 0 011.561-2.024A9.9 9.9 0 0157.7 3.797a10.374 10.374 0 012.389-1.012 10.031 10.031 0 015.305 0 10.293 10.293 0 012.385 1.012 10.026 10.026 0 012.02 1.561 9.868 9.868 0 011.559 2.028 10.172 10.172 0 011.012 2.4 9.883 9.883 0 01.361 2.661 9.719 9.719 0 01-.361 2.648 10.051 10.051 0 01-1.012 2.381 9.793 9.793 0 01-1.559 2.016 9.93 9.93 0 01-2.02 1.551 9.981 9.981 0 01-12.1-1.559 9.946 9.946 0 01-2.564-4.4 9.777 9.777 0 01-.357-2.652zm1.53-.012a8.175 8.175 0 00.665 3.29 8.485 8.485 0 004.5 4.494 8.52 8.52 0 005.544.361 8.573 8.573 0 003.724-2.173 8.243 8.243 0 001.322-1.7 8.385 8.385 0 001.157-4.268 8.114 8.114 0 00-.671-3.278 8.548 8.548 0 00-4.5-4.5 8.077 8.077 0 00-3.277-.667 8.386 8.386 0 00-2.249.3 8.706 8.706 0 00-2.024.855 7.987 7.987 0 00-1.714 1.326 8.509 8.509 0 00-2.173 3.729 8.343 8.343 0 00-.304 2.23zm36.818-9.316a.42.42 0 01.472-.445h.591c.3 0 .447.139.447.421v18.634a.423.423 0 01-.485.433h-.616a.528.528 0 01-.433-.208L77.859 5.188v16.488a.422.422 0 01-.484.472h-.549a.417.417 0 01-.472-.472V3.146a1.189 1.189 0 01.025-.28.21.21 0 01.149-.141 1.546 1.546 0 01.383-.043c.17 0 .4-.008.7-.008a.3.3 0 01.247.132q1.551 1.95 3.227 4.064t3.393 4.255q1.708 2.142 3.4 4.256t3.232 4.068zm15.41 18.442a.538.538 0 01-.616.6h-.314c-.383 0-.574-.2-.574-.6V3.253a.592.592 0 01.149-.408.549.549 0 01.425-.17h.357a.569.569 0 01.4.157.546.546 0 01.17.421v10.909l10.442-11.079a2.55 2.55 0 01.349-.3.57.57 0 01.318-.11h1.441c.187 0 .277.039.277.119a.349.349 0 01-.132.222.042.042 0 01-.012-.026l-.012-.012c-.01 0 0 .025.025.08l-7.355 7.7 9.141 10.875a.66.66 0 01.2.365c0 .106-.094.157-.29.157h-1.206a.414.414 0 01-.273-.106 1.931 1.931 0 01-.3-.3l-8.278-9.926-4.328 4.566zm16.089-9.114a9.952 9.952 0 011.357-5.042 10.062 10.062 0 013.583-3.593 10.4 10.4 0 012.389-1.012 10.036 10.036 0 015.307 0 10.282 10.282 0 012.384 1.012 9.971 9.971 0 013.58 3.589 10.285 10.285 0 011.012 2.4 9.882 9.882 0 01.361 2.661 9.718 9.718 0 01-.361 2.648 10.162 10.162 0 01-1.012 2.381 9.989 9.989 0 01-18.247-2.393 9.722 9.722 0 01-.353-2.651zm1.53-.012a8.175 8.175 0 00.663 3.29 8.495 8.495 0 004.5 4.494 8.521 8.521 0 005.544.361 8.594 8.594 0 003.724-2.173 8.293 8.293 0 001.322-1.7 8.476 8.476 0 00.855-2.02 8.39 8.39 0 00.3-2.249 8.138 8.138 0 00-.671-3.278 8.548 8.548 0 00-4.5-4.5 8.084 8.084 0 00-3.278-.667 8.385 8.385 0 00-2.249.3 8.754 8.754 0 00-2.024.855 8.011 8.011 0 00-1.712 1.326 8.508 8.508 0 00-2.173 3.729 8.343 8.343 0 00-.301 2.231zm30.049-9.758a6.027 6.027 0 012.381.5 6.085 6.085 0 013.219 3.262 5.98 5.98 0 01.476 2.367 6.059 6.059 0 01-1 3.354 6.38 6.38 0 01-1.143 1.293 5.892 5.892 0 01-1.463.926l3.291 7.21a.633.633 0 01.068.239.539.539 0 01-.026.194.2.2 0 01-.143.1 1.7 1.7 0 01-.371.039c-.165.008-.4.008-.706.008a.351.351 0 01-.339-.251l-3.227-7.146a3.861 3.861 0 01-.531.1 5.368 5.368 0 01-.612.033h-6.386v6.794a.417.417 0 01-.471.472h-.565a.417.417 0 01-.473-.472V3.095a1.045 1.045 0 01.171-.335.41.41 0 01.3-.1zm-.761 10.726h.214c.339 0 .676-.008 1.006-.026a3.457 3.457 0 00.987-.2 4.855 4.855 0 001.259-.659 4.352 4.352 0 00.99-.99 4.685 4.685 0 00.642-1.267 4.616 4.616 0 00.229-1.459 4.538 4.538 0 00-.357-1.789 4.6 4.6 0 00-.973-1.479 4.737 4.737 0 00-1.463-1 4.537 4.537 0 00-1.81-.365h-6.48v9.23zm23.369-10.726a.439.439 0 01.5.492v.65a.518.518 0 01-.127.361.5.5 0 01-.387.136h-11.443v6.845h9.2a.567.567 0 01.361.11.464.464 0 01.136.374v.667a.509.509 0 01-.124.357.5.5 0 01-.374.128h-9.199v7.722h11.622a.435.435 0 01.5.489v.68a.422.422 0 01-.484.472h-12.862a.432.432 0 01-.3-.11.469.469 0 01-.114-.349V3.146a.476.476 0 01.127-.374.535.535 0 01.353-.11zm2.334 19.017c.063-.2.128-.387.192-.557s.127-.327.192-.467l7.368-17.653a1.662 1.662 0 01.157-.259.358.358 0 01.3-.119h.539a.373.373 0 01.316.119c.059.077.119.157.17.234l7.7 18.545a.439.439 0 01.026.123 1.321 1.321 0 01.012.141c0 .208-.141.332-.421.365h-.693a.142.142 0 00-.055.008.206.206 0 01-.051 0 .5.5 0 01-.472-.365l-1.836-4.459h-9.94l-.978 2.4q-.467 1.145-.846 2.087a.477.477 0 01-.459.327.447.447 0 01-.119-.012h-.693c-.28-.026-.421-.141-.421-.341v-.059a.139.139 0 01.012-.058zm4.184-5.982h8.592l-4.278-10.475z" fill="#fff"/></svg>