<svg id="레이어_1" data-name="레이어 1" xmlns="http://www.w3.org/2000/svg" viewBox="0 0 200 156.31"><defs><style>.cls-3{fill:#2d5476}</style></defs><path d="M17.76 131.63a.68.68 0 01.45.15.63.63 0 01.2.44v.67a.59.59 0 01-.65.64h-7.61v21.86a.53.53 0 01-.6.6h-.68a.54.54 0 01-.61-.6v-21.86H.59c-.39 0-.59-.21-.59-.64v-.67a.62.62 0 01.15-.44.62.62 0 01.44-.15zm3.05 12.21a12.51 12.51 0 011.69-6.3 12.57 12.57 0 014.5-4.49 13.45 13.45 0 013-1.27 12.71 12.71 0 016.63 0 13 13 0 013 1.27 12.44 12.44 0 014.48 4.48 12.86 12.86 0 011.26 3 12.28 12.28 0 01.46 3.33 12.08 12.08 0 01-.46 3.31 12.71 12.71 0 01-1.26 3 12.16 12.16 0 01-2 2.51 11.9 11.9 0 01-2.53 1.94 11.77 11.77 0 01-3 1.26 12.47 12.47 0 01-6.64 0 12.56 12.56 0 01-5.51-3.21 12.5 12.5 0 01-1.95-2.52 12.28 12.28 0 01-1.25-3 12 12 0 01-.42-3.31zm1.91 0a10.3 10.3 0 00.83 4.11 10.64 10.64 0 002.26 3.35 10.83 10.83 0 003.36 2.27 10.62 10.62 0 006.93.45 10.86 10.86 0 002.52-1.07 10.63 10.63 0 002.14-1.65 10.57 10.57 0 002.72-4.65 10.53 10.53 0 00.38-2.81 10.13 10.13 0 00-.84-4.1 11 11 0 00-2.27-3.36 10.69 10.69 0 00-3.36-2.26 10 10 0 00-4.09-.84 10.41 10.41 0 00-2.81.37 10.75 10.75 0 00-2.49 1.06 10 10 0 00-2.15 1.66 10.57 10.57 0 00-3.09 7.46zm46.03-11.65a.52.52 0 01.59-.56h.74c.37 0 .55.17.55.52v23.3a.52.52 0 01-.6.54h-.77a.66.66 0 01-.55-.26l-16.52-20.94v20.61a.53.53 0 01-.61.59h-.69a.52.52 0 01-.59-.59v-23.17a1.08 1.08 0 010-.35.26.26 0 01.18-.17 1.9 1.9 0 01.48-.05h.88a.41.41 0 01.31.17l4 5.08 4.24 5.32 4.25 5.32 4 5.09zM88 155.24a.67.67 0 01-.77.75h-.4c-.48 0-.71-.25-.71-.75v-22.87a.71.71 0 01.18-.51.68.68 0 01.53-.22h.45a.7.7 0 01.5.2.67.67 0 01.22.53V146l13-13.86a3.46 3.46 0 01.44-.37.69.69 0 01.39-.14h1.81c.23 0 .34.05.34.15a.43.43 0 01-.16.28v.1l-9.2 9.62 11.43 13.6a.81.81 0 01.24.46c0 .13-.11.19-.36.19h-1.51a.54.54 0 01-.34-.13 2.25 2.25 0 01-.37-.38l-10.29-12.45-5.42 5.71zm20.12-11.4a12.47 12.47 0 01.44-3.31 12.61 12.61 0 011.26-3 12.29 12.29 0 012-2.53 12 12 0 012.53-2 13.25 13.25 0 013-1.27 12.44 12.44 0 013.32-.44 12.58 12.58 0 013.31.44 13.18 13.18 0 013 1.27 12.29 12.29 0 012.53 1.95 12.64 12.64 0 011.95 2.53 12.86 12.86 0 011.26 3 12.28 12.28 0 01.45 3.33 12.08 12.08 0 01-.45 3.31 12.71 12.71 0 01-1.26 3 12.52 12.52 0 01-1.95 2.51 12.67 12.67 0 01-5.51 3.2 12.47 12.47 0 01-6.64 0 12 12 0 01-3-1.26 12.15 12.15 0 01-2.52-1.95 12.5 12.5 0 01-2-2.52 12.71 12.71 0 01-1.26-3 12.42 12.42 0 01-.46-3.26zm1.92 0a10.13 10.13 0 00.83 4.11 10.48 10.48 0 002.26 3.35 10.83 10.83 0 003.36 2.27 10.62 10.62 0 006.93.45 11 11 0 002.51-1.07 10.69 10.69 0 002.15-1.65 10.38 10.38 0 001.65-2.13 10.86 10.86 0 001.07-2.52 10.52 10.52 0 00.37-2.81 10.13 10.13 0 00-.84-4.1 10.63 10.63 0 00-5.62-5.62 10.06 10.06 0 00-4.1-.84 10.52 10.52 0 00-2.81.37 11.12 11.12 0 00-2.53 1.07 10.15 10.15 0 00-2.14 1.66 10.44 10.44 0 00-1.65 2.14 11.31 11.31 0 00-1.07 2.52 10.39 10.39 0 00-.41 2.79zm37.56-12.21a7.61 7.61 0 017 4.7 7.53 7.53 0 01.6 3 7.79 7.79 0 01-.33 2.22 7.43 7.43 0 01-.93 2 7.84 7.84 0 01-1.43 1.62 7.57 7.57 0 01-1.83 1.16l4.12 9a.72.72 0 010 .54.23.23 0 01-.18.12 1.67 1.67 0 01-.46 0h-.88a.44.44 0 01-.43-.31l-4-8.94a5 5 0 01-.67.13h-8.76v8.49a.52.52 0 01-.59.59h-.7a.52.52 0 01-.59-.59v-23.19a1.47 1.47 0 01.21-.42.52.52 0 01.38-.12zm-.95 13.37h1.53a4.49 4.49 0 001.23-.25 6.18 6.18 0 001.57-.82 5.61 5.61 0 001.24-1.24 5.84 5.84 0 001.09-3.41 5.62 5.62 0 00-.45-2.23 5.71 5.71 0 00-1.21-1.85 5.78 5.78 0 00-1.83-1.25 5.55 5.55 0 00-2.27-.46h-8.1V145zm29.22-13.37a.55.55 0 01.62.62v.81a.64.64 0 01-.16.45.62.62 0 01-.48.17h-14.31v8.56h11.51a.67.67 0 01.45.14.57.57 0 01.17.46v.84a.63.63 0 01-.15.44.62.62 0 01-.47.16h-11.51v9.66h14.53a.54.54 0 01.62.61v.85c0 .4-.2.59-.61.59H160a.57.57 0 01-.38-.14.6.6 0 01-.14-.43v-23.19a.57.57 0 01.16-.46.68.68 0 01.44-.14zm2.91 23.77q.12-.37.24-.69c.09-.22.16-.41.24-.59l9.21-22.07a2.14 2.14 0 01.2-.32.45.45 0 01.38-.15h.67a.45.45 0 01.39.15l.22.29 9.67 23.19a.61.61 0 010 .15v.17c0 .27-.18.42-.53.46h-1a.64.64 0 01-.59-.46l-2.29-5.53h-12.43c-.42 1-.83 2-1.22 3s-.74 1.83-1.06 2.61a.59.59 0 01-.57.41h-1c-.35 0-.52-.18-.52-.43v-.07a.19.19 0 01-.01-.12zm5.23-7.48h10.74l-5.34-13.09z" fill="#231815"/><path d="M59.9 18.3a8.5 8.5 0 017.27-12.88h30.12v34.67a49.26 49.26 0 002.82-4.91 47.37 47.37 0 012.6-4.57V5.42h30.12a8.34 8.34 0 016.39 2.92 48.33 48.33 0 016.26-.2c-.17-.36-.34-.72-.54-1.07A13.76 13.76 0 00132.83 0H67.17a13.76 13.76 0 00-12.11 7.07 13.77 13.77 0 00.2 14l22 36.44A48.62 48.62 0 0082 55z" fill="#c22127"/><path class="cls-3" d="M139.7 8.94a8.41 8.41 0 01.4 9.36l-37.39 61.92V32.39a47.34 47.34 0 00-1.86 3.36 49 49 0 01-3.56 6v38.47l-14.8-24.51a46.71 46.71 0 01-4.78 2.56L100 95.19l44.74-74.08a13.73 13.73 0 001-12.42 50.42 50.42 0 00-6.04.25z"/><path class="cls-3" d="M100.85 35.75c.58-1.16 1.2-2.27 1.86-3.36v-1.78a47.37 47.37 0 00-2.6 4.57 49.26 49.26 0 01-2.82 4.91v1.67a49 49 0 003.56-6.01zM82.49 55.71L82 55a48.62 48.62 0 01-4.76 2.58l.43.72a46.71 46.71 0 004.82-2.59zm56.73-47.37a7 7 0 01.48.6 50.42 50.42 0 016-.25c-.07-.19-.16-.37-.24-.55a48.33 48.33 0 00-6.24.2z"/></svg>