<svg data-name="레이어 1" xmlns="http://www.w3.org/2000/svg" viewBox="0 0 200 24.97"><path d="M17.76.29a.68.68 0 01.45.15.67.67 0 01.2.44v.68a.64.64 0 01-.16.45.61.61 0 01-.49.19h-7.61v21.85a.54.54 0 01-.6.61h-.68a.54.54 0 01-.61-.61V2.2H.59C.2 2.2 0 2 0 1.56V.88A.59.59 0 01.15.45.62.62 0 01.59.29zm3.05 12.22a12.15 12.15 0 01.44-3.32 12.35 12.35 0 011.25-3A12.57 12.57 0 0127 1.71a13 13 0 013-1.26 12.44 12.44 0 016.63 0 12.54 12.54 0 013 1.26 12.36 12.36 0 014.43 4.49 12.79 12.79 0 011.26 3 12.34 12.34 0 01.46 3.33 12 12 0 01-.46 3.31 12.41 12.41 0 01-5.74 7.44A12.51 12.51 0 0130 24.52a12.44 12.44 0 01-8.71-8.7 12.13 12.13 0 01-.48-3.31zm1.91 0a10.23 10.23 0 00.83 4.11 10.54 10.54 0 005.62 5.62 10.62 10.62 0 006.93.45 10.06 10.06 0 002.52-1.07 10.48 10.48 0 003.79-3.77 10.69 10.69 0 001.07-2.53 10.47 10.47 0 00.38-2.81A10.13 10.13 0 0043 8.39 11 11 0 0040.75 5a10.71 10.71 0 00-3.36-2.27 10 10 0 00-4.09-.84 10.42 10.42 0 00-2.81.38A10.73 10.73 0 0028 3.37 10 10 0 0025.81 5a11 11 0 00-1.64 2.14 10.46 10.46 0 00-1.45 5.32zM68.75.85a.52.52 0 01.59-.56h.74c.37 0 .55.18.55.53v23.29a.53.53 0 01-.6.55h-.77a.67.67 0 01-.55-.27L52.19 3.45v20.62a.53.53 0 01-.61.59h-.69a.52.52 0 01-.59-.59V.9a1 1 0 010-.35.25.25 0 01.18-.18 1.9 1.9 0 01.48 0h.88a.4.4 0 01.31.16l4 5.08c1.4 1.76 2.81 3.54 4.24 5.32s2.84 3.57 4.25 5.32l4 5.09zM88 23.9a.68.68 0 01-.77.76h-.4c-.48 0-.71-.25-.71-.76V1a.71.71 0 01.18-.51.68.68 0 01.53-.21h.45a.66.66 0 01.5.2A.65.65 0 0188 1v13.67L101 .82a2.33 2.33 0 01.44-.37.69.69 0 01.39-.14h1.81c.23 0 .34 0 .34.15a.41.41 0 01-.16.27v.1l-9.2 9.62L106.11 24a.87.87 0 01.24.46c0 .13-.11.2-.36.2h-1.51a.55.55 0 01-.34-.14 2.14 2.14 0 01-.37-.37L93.42 11.74 88 17.44zm20.12-11.39a12.55 12.55 0 01.44-3.32 12.79 12.79 0 011.26-3 12.56 12.56 0 012-2.53 12.33 12.33 0 012.53-2 12.79 12.79 0 013-1.26 12 12 0 013.26-.4 12.18 12.18 0 013.31.45 12.71 12.71 0 013 1.26 12.29 12.29 0 012.53 2 12.63 12.63 0 013.21 5.53 12.33 12.33 0 01.45 3.33 12 12 0 01-.45 3.31 12.54 12.54 0 01-1.26 3 12.87 12.87 0 01-1.95 2.52 12.6 12.6 0 01-2.53 1.94 12.58 12.58 0 01-6.3 1.7 12.15 12.15 0 01-3.32-.45 12.35 12.35 0 01-3-1.25 12.5 12.5 0 01-2.52-1.95 12.29 12.29 0 01-2-2.53 12.24 12.24 0 01-1.7-6.28zm1.92 0a10.07 10.07 0 00.83 4.11 10.63 10.63 0 002.26 3.38 10.8 10.8 0 003.36 2.26 10.62 10.62 0 006.93.45 10.15 10.15 0 002.51-1.07 10.41 10.41 0 003.8-3.77 11.12 11.12 0 001.07-2.53 10.47 10.47 0 00.37-2.81 10.13 10.13 0 00-.84-4.1 10.72 10.72 0 00-5.62-5.62 10.06 10.06 0 00-4.1-.84 10.53 10.53 0 00-2.81.38 11.09 11.09 0 00-2.53 1.06A10.15 10.15 0 00113.13 5a11 11 0 00-1.65 2.14 11.31 11.31 0 00-1.07 2.52 10.5 10.5 0 00-.41 2.83zM147.6.29a7.64 7.64 0 013 .62 7.62 7.62 0 014 4.08 7.56 7.56 0 01.6 3 7.81 7.81 0 01-.33 2.23 7.52 7.52 0 01-.93 2 7.59 7.59 0 01-1.43 1.62 7.28 7.28 0 01-1.83 1.16l4.12 9a.78.78 0 01.08.3.7.7 0 010 .24c0 .06-.08.1-.18.13a2.34 2.34 0 01-.46 0h-.88a.45.45 0 01-.43-.32l-4-8.93a4.94 4.94 0 01-.67.12 5.82 5.82 0 01-.76 0h-8v8.5a.52.52 0 01-.59.59h-.7a.52.52 0 01-.59-.59V.83a1.62 1.62 0 01.21-.42.52.52 0 01.38-.12zm-.95 13.41h1.53a4.47 4.47 0 001.23-.24 6.22 6.22 0 001.59-.86 5.4 5.4 0 001.24-1.24 5.73 5.73 0 00.8-1.58 5.83 5.83 0 00.27-1.78 5.64 5.64 0 00-.45-2.24 5.82 5.82 0 00-1.21-1.85 6 6 0 00-1.83-1.25 5.72 5.72 0 00-2.27-.46h-8.1v11.5zM175.87.29a.55.55 0 01.62.62v.81a.61.61 0 01-.16.45.59.59 0 01-.48.17h-14.31v8.56h11.51a.73.73 0 01.45.14.58.58 0 01.17.47v.83a.64.64 0 01-.15.45.67.67 0 01-.47.16h-11.51v9.65h14.53a.55.55 0 01.62.62v.85a.53.53 0 01-.61.59H160a.57.57 0 01-.38-.14.63.63 0 01-.14-.44V.9a.59.59 0 01.16-.47.68.68 0 01.44-.14zm2.91 23.78a11.953 11.953 0 01.48-1.29L188.47.72a1.81 1.81 0 01.2-.33.45.45 0 01.38-.15h.67a.45.45 0 01.39.15l.22.3L200 23.87a.61.61 0 010 .15v.18c0 .26-.18.41-.53.46h-1a.62.62 0 01-.59-.46l-2.29-5.57h-12.43c-.42 1.05-.83 2.05-1.22 3s-.74 1.82-1.06 2.61a.59.59 0 01-.57.41h-1.02c-.35 0-.52-.18-.52-.43v-.07a.15.15 0 01.01-.08zm5.22-7.48h10.74l-5.34-13.1z" fill="#231815"/></svg>