<svg xmlns="http://www.w3.org/2000/svg" width="375.287" height="47.516"><defs><clipPath id="a"><path d="M395.608 291.457a6.865 6.865 0 00-6.047-3.53h-32.778a6.943 6.943 0 00-5.942 10.535l22.332 36.981 22.332-36.981a6.872 6.872 0 00.103-7.005zm-42.517 1.33a4.187 4.187 0 013.691-2.156h15.037v37.342l-18.667-30.91a4.2 4.2 0 01-.061-4.276zm40.1 4.277l-18.667 30.91v-37.343h15.036a4.242 4.242 0 013.631 6.433z" transform="translate(-349.827 -287.927)" fill="none"/></clipPath></defs><g clip-path="url(#a)"><path d="M50.465-22.926a4.77 4.77 0 00-.818-.515 6.276 6.276 0 01.818.515" fill="#b70027"/><path d="M45.596-25.886A48.884 48.884 0 00-19.933-3.963a24.421 24.421 0 1043.7 21.81 24.421 24.421 0 1143.7 21.812 48.87 48.87 0 00-21.873-65.545" fill="#b40d1c"/><path d="M-20.3-4.25a24.421 24.421 0 1043.7 21.812 24.421 24.421 0 1143.7 21.81A48.842 48.842 0 11-20.3-4.25" fill="#1c4364"/></g><path d="M96.294 5.095a.921.921 0 011 .9v1.034a1.014 1.014 0 01-.245.7.971.971 0 01-.757.277H84.657v33.456a.82.82 0 01-.929.926h-1.034a.819.819 0 01-.926-.926V8.008h-11.75c-.6 0-.9-.327-.9-.976V5.997a.818.818 0 01.9-.9zm4.674 18.696a19.046 19.046 0 012.6-9.649 19.158 19.158 0 012.987-3.873 18.947 18.947 0 013.873-3A19.85 19.85 0 01115 5.332a19.2 19.2 0 0110.153 0 19.7 19.7 0 014.565 1.937 19.181 19.181 0 013.865 2.987 18.884 18.884 0 012.984 3.881 19.457 19.457 0 011.937 4.588 18.914 18.914 0 01.691 5.092 18.6 18.6 0 01-.691 5.068 19.223 19.223 0 01-1.937 4.557 18.741 18.741 0 01-2.984 3.857 19 19 0 01-3.865 2.968 19.1 19.1 0 01-23.163-2.984 19.035 19.035 0 01-4.908-8.422 18.707 18.707 0 01-.679-5.07zm2.929-.024a15.646 15.646 0 001.272 6.3 16.238 16.238 0 008.607 8.6 16.306 16.306 0 0010.609.691 16.408 16.408 0 007.127-4.158 15.775 15.775 0 002.53-3.261 16.046 16.046 0 002.214-8.169 15.529 15.529 0 00-1.285-6.274 16.359 16.359 0 00-8.609-8.607 15.456 15.456 0 00-6.272-1.277 16.048 16.048 0 00-4.3.567 16.654 16.654 0 00-3.873 1.636 15.282 15.282 0 00-3.28 2.538 16.282 16.282 0 00-4.158 7.137 15.964 15.964 0 00-.582 4.277zm70.46-17.82a.8.8 0 01.9-.852h1.132c.57 0 .855.266.855.8v35.662a.809.809 0 01-.929.829h-1.18a1.01 1.01 0 01-.828-.4L149.004 9.937v31.554a.808.808 0 01-.926.9h-1.05a.8.8 0 01-.9-.9V6.021a2.276 2.276 0 01.047-.536.4.4 0 01.285-.269 2.958 2.958 0 01.734-.082 53.97 53.97 0 011.34-.016.579.579 0 01.472.253q2.968 3.732 6.177 7.778t6.493 8.142q3.269 4.1 6.5 8.145t6.185 7.786zm29.485 35.286a1.03 1.03 0 01-1.18 1.156h-.6c-.733 0-1.1-.383-1.1-1.156V6.223a1.134 1.134 0 01.285-.781 1.05 1.05 0 01.813-.325h.683a1.089 1.089 0 01.773.3 1.044 1.044 0 01.325.8v20.878l19.984-21.2a4.879 4.879 0 01.668-.57 1.091 1.091 0 01.609-.211h2.757c.359 0 .53.074.53.227a.668.668 0 01-.253.425.079.079 0 01-.024-.05l-.024-.024c-.018 0 0 .047.048.153L214.06 20.577l17.493 20.812a1.263 1.263 0 01.375.7c0 .2-.179.3-.554.3h-2.304a.793.793 0 01-.522-.2 3.7 3.7 0 01-.578-.578l-15.841-19-8.282 8.739zm30.796-17.442a19.046 19.046 0 012.6-9.649 19.257 19.257 0 016.857-6.876 19.9 19.9 0 014.573-1.937 19.205 19.205 0 0110.156 0 19.675 19.675 0 014.562 1.937 19.08 19.08 0 016.852 6.868 19.692 19.692 0 011.937 4.588 18.914 18.914 0 01.691 5.092 18.6 18.6 0 01-.691 5.068 19.454 19.454 0 01-1.937 4.557 19.116 19.116 0 01-34.92-4.58 18.607 18.607 0 01-.68-5.068zm2.929-.024a15.643 15.643 0 001.269 6.3 16.255 16.255 0 008.609 8.6 16.306 16.306 0 0010.609.691 16.448 16.448 0 007.126-4.158 15.867 15.867 0 002.53-3.261 16.216 16.216 0 001.636-3.865 16.05 16.05 0 00.578-4.3 15.575 15.575 0 00-1.285-6.274 16.36 16.36 0 00-8.609-8.607 15.469 15.469 0 00-6.274-1.277 16.047 16.047 0 00-4.3.567 16.752 16.752 0 00-3.873 1.636 15.329 15.329 0 00-3.277 2.538 16.285 16.285 0 00-4.158 7.137 15.971 15.971 0 00-.581 4.273zm57.505-18.672a11.535 11.535 0 014.557.95 11.645 11.645 0 016.161 6.243 11.443 11.443 0 01.91 4.53 11.594 11.594 0 01-1.921 6.419 12.205 12.205 0 01-2.187 2.475 11.279 11.279 0 01-2.8 1.773l6.3 13.8a1.21 1.21 0 01.129.457 1.029 1.029 0 01-.05.372.383.383 0 01-.274.188 3.258 3.258 0 01-.71.074c-.317.016-.765.016-1.351.016a.672.672 0 01-.649-.48l-6.178-13.675a7.377 7.377 0 01-1.016.187 10.255 10.255 0 01-1.171.063H282.6v13a.8.8 0 01-.9.9h-1.082a.8.8 0 01-.905-.9V5.923a2 2 0 01.327-.641.784.784 0 01.578-.187zm-1.457 20.527h.409c.649 0 1.293-.016 1.926-.05a6.615 6.615 0 001.889-.375 9.286 9.286 0 002.409-1.261 8.326 8.326 0 001.895-1.894 8.968 8.968 0 001.229-2.425 8.834 8.834 0 00.438-2.792 8.684 8.684 0 00-.683-3.425 8.805 8.805 0 00-1.863-2.831 9.069 9.069 0 00-2.8-1.913 8.685 8.685 0 00-3.464-.7h-12.4v17.665zm44.727-20.527a.84.84 0 01.96.942v1.245a.991.991 0 01-.243.691.951.951 0 01-.741.261h-21.91v13.1h17.622a1.086 1.086 0 01.691.211.889.889 0 01.261.715v1.277a.974.974 0 01-.237.683.959.959 0 01-.715.245h-17.622v14.783h22.242a.833.833 0 01.953.937v1.3a.808.808 0 01-.926.9h-24.6a.828.828 0 01-.578-.211.9.9 0 01-.219-.667V6.017a.911.911 0 01.243-.715 1.025 1.025 0 01.675-.211zm4.466 36.396c.121-.383.245-.741.367-1.066s.243-.625.367-.894l14.1-33.783a3.189 3.189 0 01.3-.5.685.685 0 01.578-.227h1.032a.715.715 0 01.6.227c.113.148.227.3.324.449l14.737 35.494a.835.835 0 01.05.235 2.471 2.471 0 01.024.269c0 .4-.269.636-.8.7h-1.327a.271.271 0 00-.105.016.392.392 0 01-.1.008.95.95 0 01-.9-.7l-3.515-8.538h-19.028l-1.871 4.588q-.893 2.188-1.62 3.995a.914.914 0 01-.879.625.849.849 0 01-.227-.024h-1.327c-.536-.05-.8-.269-.8-.652V41.6a.267.267 0 01.02-.109zm8.008-11.448h16.443l-8.188-20.052z" fill="#1a1311"/></svg>