<svg id="레이어_1" data-name="레이어 1" xmlns="http://www.w3.org/2000/svg" viewBox="0 0 93.53 95.19"><defs><style>.cls-2{fill:#2d5476}</style></defs><path d="M6.66 18.3a8.5 8.5 0 017.27-12.88h30.13v34.67a53.52 53.52 0 002.82-4.91 49.51 49.51 0 012.59-4.57V5.42H79.6A8.37 8.37 0 0186 8.34a48.24 48.24 0 016.25-.2c-.16-.36-.34-.72-.53-1.07A13.77 13.77 0 0079.6 0H13.93A13.77 13.77 0 001.82 7.07a13.77 13.77 0 00.21 14L24 57.56A51.09 51.09 0 0028.81 55z" fill="#c22127"/><path class="cls-2" d="M86.47 8.94c.18.26.36.52.52.8a8.39 8.39 0 01-.12 8.56l-37.4 61.92V32.39a51.69 51.69 0 00-1.86 3.36 48.94 48.94 0 01-3.55 6v38.47l-14.8-24.5a48.83 48.83 0 01-4.79 2.55l22.29 36.92L91.5 21.11a13.73 13.73 0 001-12.42 50.25 50.25 0 00-6.03.25z"/><path class="cls-2" d="M47.61 35.75a51.69 51.69 0 011.86-3.36v-1.78a49.51 49.51 0 00-2.59 4.57 53.52 53.52 0 01-2.82 4.91v1.67a48.94 48.94 0 003.55-6.01zM29.26 55.72l-.45-.72A51.09 51.09 0 0124 57.56l.43.71a48.83 48.83 0 004.83-2.55zM86 8.34c.16.19.33.39.48.6a50.25 50.25 0 016-.25 9.19 9.19 0 00-.25-.55 48.24 48.24 0 00-6.23.2z"/></svg>