<svg xmlns="http://www.w3.org/2000/svg" viewBox="0 0 59.9 59.9"><path fill="#070304" d="M29.893 59.8c-.2 0-.4-.1-.5-.2L.493 40.9c-.3-.2-.5-.5-.5-.8V19.8c0-.3.2-.7.5-.8L29.393.2c.3-.2.8-.2 1.1 0l28.9 18.8c.3.2.5.5.5.8V40c0 .3-.2.7-.5.8l-28.9 18.9c-.2.1-.4.1-.6.1zm-27.9-20.3l27.9 18.2 27.9-18.2V20.3l-27.9-18.1-27.9 18.1v19.2z"/><path fill="#070304" d="M29.893 59.9c-.6 0-1-.4-1-1V40.1c0-.6.4-1 1-1s1 .4 1 1v18.8c0 .5-.4 1-1 1zm0-39.1c-.6 0-1-.4-1-1V1c0-.6.4-1 1-1s1 .4 1 1v18.8c0 .6-.4 1-1 1z"/><path fill="#070304" d="M29.893 41c-.2 0-.4-.1-.6-.2L.393 20.6c-.5-.3-.6-.9-.2-1.4.3-.5.9-.6 1.4-.2l28.4 19.8 28.3-19.8c.5-.3 1.1-.2 1.4.2.3.5.2 1.1-.2 1.4l-29 20.3c-.2.1-.4.1-.6.1z"/><path fill="#070304" d="M.993 41.1c-.3 0-.6-.1-.8-.4-.3-.5-.2-1.1.2-1.4l29-20.3c.3-.2.8-.2 1.1 0l28.9 20.2c.5.3.6.9.2 1.4-.3.5-.9.6-1.4.2L29.893 21l-28.3 19.9c-.2.1-.4.2-.6.2z"/></svg>