<svg xmlns="http://www.w3.org/2000/svg" viewBox="0 0 53.1 53.1"><path fill="#070304" d="M22.3 44.6C10 44.6 0 34.6 0 22.3S10 0 22.3 0s22.3 10 22.3 22.3-10 22.3-22.3 22.3zm0-42.6C11.1 2 2 11.1 2 22.3s9.1 20.3 20.3 20.3c11.2 0 20.3-9.1 20.3-20.3S33.5 2 22.3 2z"/><path fill="#070304" d="M36.695 38.118l1.414-1.414 14.99 14.99-1.414 1.415zM22.3 41.1c-10.4 0-18.8-8.4-18.8-18.8S11.9 3.5 22.3 3.5s18.8 8.4 18.8 18.8-8.5 18.8-18.8 18.8zm0-35.6C13 5.5 5.5 13 5.5 22.3c0 9.2 7.5 16.8 16.8 16.8 9.2 0 16.8-7.5 16.8-16.8S31.5 5.5 22.3 5.5z"/></svg>