<svg xmlns="http://www.w3.org/2000/svg" viewBox="0 0 60.4 56.4"><path fill="none" d="M18.66 28.148c-3.2 0-6.3 1.5-8.3 4h-4.2c-1.5.1-3.1-.4-4.3-1.3-1.2-.9-1.8-2.3-1.8-3.7 0-7.4 1.3-11.1 3.9-11.1.5.2.9.4 1.4.7 1 .5 2 1 3.1 1.3 1.2.4 2.5.7 3.7.7 1.4 0 2.8-.2 4.2-.7-.1.7-.2 1.4-.2 2.1-.1 2.9.8 5.7 2.5 8zm33.7 20.1c.1 2.2-.7 4.4-2.3 6-1.7 1.5-3.9 2.3-6.1 2.2h-27.5c-2.2.1-4.4-.7-6.1-2.2-1.6-1.6-2.4-3.7-2.3-6 0-1.1 0-2.2.1-3.3.1-1.2.2-2.3.4-3.4.2-1.2.5-2.3.8-3.4.3-1.1.8-2.1 1.4-3.1.5-.9 1.2-1.8 2-2.5s1.7-1.3 2.7-1.7c1.1-.4 2.3-.6 3.5-.6.5.1 1 .4 1.4.7.7.5 1.5 1 2.3 1.5 4.7 2.9 10.6 2.9 15.2 0 .8-.6 1.6-1.1 2.3-1.5.4-.3.9-.5 1.4-.7 1.2 0 2.4.2 3.5.6 1 .4 1.9 1 2.7 1.7.8.8 1.4 1.6 2 2.5.6 1 1 2 1.4 3.1.4 1.1.6 2.3.8 3.4.2 1.1.4 2.3.4 3.4v3.3zm-32.2-40.2c0 4.4-3.6 8.1-8.1 8.1-4.4 0-8.1-3.6-8.1-8.1 0-4.4 3.6-8.1 8.1-8.1 2.1 0 4.2.8 5.7 2.4 1.6 1.5 2.4 3.6 2.4 5.7zm22.1 12.1c0 6.7-5.4 12.1-12.1 12.1s-12.1-5.4-12.1-12.1c0-6.7 5.4-12.1 12.1-12.1 3.2 0 6.3 1.3 8.5 3.5 2.4 2.3 3.7 5.4 3.6 8.6zm18.2 7.1c.1 1.5-.6 2.9-1.8 3.7-1.3.9-2.8 1.3-4.3 1.3h-4.2c-2-2.5-5.1-4-8.3-4 1.7-2.4 2.6-5.2 2.5-8.1 0-.7-.1-1.4-.2-2.1 1.3.5 2.8.7 4.2.7 1.3 0 2.5-.2 3.7-.7 1.1-.4 2.1-.8 3.1-1.3.4-.3.9-.5 1.4-.7 2.5.1 3.8 3.8 3.9 11.2zm-4.1-19.2c0 4.4-3.6 8.1-8.1 8.1-4.4 0-8.1-3.6-8.1-8.1 0-4.4 3.6-8.1 8.1-8.1 2.1 0 4.2.8 5.7 2.4 1.6 1.5 2.5 3.6 2.4 5.7z"/><path fill="#070304" d="M12.06 2.048c-1.7 0-3.1.6-4.3 1.8-1.2 1.2-1.8 2.6-1.8 4.3 0 1.7.6 3.1 1.8 4.3 1.2 1.2 2.6 1.8 4.3 1.8 1.7 0 3.1-.6 4.3-1.8 1.2-1.2 1.8-2.6 1.8-4.3 0-1.7-.6-3.1-1.8-4.3-1.2-1.3-2.6-1.8-4.3-1.8m36.3 0c-1.7 0-3.1.6-4.3 1.8-1.2 1.2-1.8 2.6-1.8 4.3 0 1.7.6 3.1 1.8 4.3 1.2 1.2 2.6 1.8 4.3 1.8 1.7 0 3.1-.6 4.3-1.8 1.2-1.2 1.8-2.6 1.8-4.3 0-1.7-.6-3.1-1.8-4.3-1.2-1.3-2.6-1.8-4.3-1.8m-18.2 8c-2.8 0-5.1 1-7.1 3s-3 4.3-3 7.1 1 5.1 3 7.1 4.3 3 7.1 3 5.1-1 7.1-3 3-4.3 3-7.1-1-5.1-3-7.1c-1.9-2-4.2-3-7.1-3m26.6 8.1c-.1.1-.3.2-.6.3-.9.5-2 1-3.4 1.5-1.5.5-3 .8-4.4.8-.7 0-1.4 0-2-.1-.1 2.1-.5 4.1-1.4 6 2.3.6 4.3 1.8 6.1 3.6h3.3c1.3 0 2.3-.3 3.2-.9.4-.3.9-.8.9-2.1 0-3.5-.3-6-.9-7.7-.3-.8-.6-1.2-.8-1.4 0 .1 0 0 0 0m-53.1 0s-.1.1 0 0c-.2.2-.5.6-.8 1.4-.6 1.6-.9 4.2-.9 7.7 0 1.3.5 1.8.9 2.1.8.6 1.9.9 3.2.9h3.3c1.7-1.8 3.7-3 6.1-3.6-.8-1.9-1.3-3.9-1.4-6-.7.1-1.4.1-2 .1-1.5 0-2.9-.3-4.4-.8-1.4-.5-2.5-1-3.4-1.5l-.6-.3m38.1 14.1c-.1.1-.3.2-.6.3-.7.4-1.4.9-2.3 1.5-1 .7-2.3 1.2-3.9 1.7s-3.2.8-4.9.8c-1.6 0-3.3-.3-4.9-.8-1.6-.5-2.9-1.1-3.9-1.7-.9-.6-1.6-1.1-2.3-1.5-.3-.2-.5-.3-.6-.3-.9 0-1.7.2-2.5.5s-1.5.7-2 1.3c-.6.6-1.1 1.3-1.6 2.1-.5.9-.9 1.8-1.2 2.7-.3 1-.6 2-.8 3.2-.2 1.2-.3 2.2-.4 3.2-.1 1-.1 2-.1 3.1 0 2 .5 3.4 1.7 4.5s2.7 1.6 4.7 1.6h27.5c2 0 3.6-.5 4.7-1.6s1.7-2.5 1.7-4.5c0-1.1 0-2.1-.1-3.1s-.2-2.1-.4-3.2-.5-2.2-.8-3.2c-.3-.9-.7-1.8-1.2-2.7-.5-.8-1-1.5-1.6-2.1-.5-.5-1.2-.9-2-1.3-.5-.3-1.3-.5-2.2-.5M12.06.048c2.2 0 4.1.8 5.7 2.4 1.6 1.6 2.4 3.5 2.4 5.7s-.8 4.1-2.4 5.7c-1.6 1.6-3.5 2.4-5.7 2.4s-4.1-.8-5.7-2.4c-1.6-1.6-2.4-3.5-2.4-5.7s.8-4.1 2.4-5.7c1.6-1.7 3.5-2.4 5.7-2.4zm36.3 0c2.2 0 4.1.8 5.7 2.4 1.6 1.6 2.4 3.5 2.4 5.7s-.8 4.1-2.4 5.7c-1.6 1.6-3.5 2.4-5.7 2.4s-4.1-.8-5.7-2.4c-1.6-1.6-2.4-3.5-2.4-5.7s.8-4.1 2.4-5.7c1.5-1.7 3.4-2.4 5.7-2.4zm-18.2 8c3.3 0 6.2 1.2 8.5 3.5 2.4 2.4 3.5 5.2 3.5 8.5s-1.2 6.2-3.5 8.5c-2.4 2.4-5.2 3.5-8.5 3.5s-6.2-1.2-8.5-3.5c-2.4-2.4-3.5-5.2-3.5-8.5s1.2-6.2 3.5-8.5c2.4-2.3 5.2-3.5 8.5-3.5zm-26.3 8.1c.1 0 .6.2 1.4.7.8.4 1.8.9 3.1 1.3 1.3.5 2.5.7 3.7.7 1.4 0 2.8-.2 4.2-.7-.1.8-.2 1.5-.2 2.1 0 2.9.8 5.6 2.5 8.1-3.4.1-6.2 1.4-8.3 4h-4.2c-1.7 0-3.2-.4-4.3-1.3-1.2-.8-1.8-2.1-1.8-3.7 0-7.5 1.3-11.2 3.9-11.2zm52.6 0c2.6 0 3.9 3.7 3.9 11.1 0 1.6-.6 2.9-1.8 3.7-1.2.8-2.6 1.3-4.3 1.3h-4.2c-2.2-2.6-4.9-3.9-8.3-4 1.7-2.5 2.5-5.1 2.5-8.1 0-.6-.1-1.3-.2-2.1 1.4.5 2.8.7 4.2.7 1.2 0 2.5-.2 3.7-.7 1.3-.5 2.3-.9 3.1-1.3.9-.4 1.3-.6 1.4-.6zm-37.5 14.1c.2 0 .7.2 1.4.7.7.5 1.5 1 2.3 1.5.8.6 2 1.1 3.4 1.5 1.4.5 2.8.7 4.2.7s2.8-.2 4.2-.7c1.4-.5 2.5-1 3.4-1.5.8-.6 1.6-1.1 2.3-1.5.7-.5 1.1-.7 1.4-.7 1.3 0 2.4.2 3.5.6 1.1.4 2 1 2.7 1.7.7.7 1.4 1.6 2 2.5.6 1 1 2 1.4 3.1.3 1 .6 2.2.8 3.4.2 1.2.4 2.4.4 3.4.1 1.1.1 2.1.1 3.3 0 2.5-.8 4.5-2.3 6-1.5 1.5-3.6 2.2-6.1 2.2h-27.5c-2.5 0-4.6-.7-6.1-2.2-1.5-1.5-2.3-3.4-2.3-6 0-1.1 0-2.2.1-3.3.1-1.1.2-2.2.4-3.4.2-1.2.5-2.4.8-3.4.3-1 .8-2.1 1.4-3.1.6-1 1.2-1.8 2-2.5.7-.7 1.6-1.3 2.7-1.7.9-.4 2.1-.6 3.4-.6z"/></svg>